<svg height="512pt" viewBox="-52 0 512 512" width="512pt" xmlns="http://www.w3.org/2000/svg"><path d="m393 0h-70.980469l85.980469 87.003906v-72.003906c0-8.285156-6.714844-15-15-15zm0 0"/><path d="m310 30.519531v67.476563l66.664062-.019532zm0 0"/><path d="m204 250.703125c15.328125 0 30.074219-2.945313 43.957031-8.769531l.03125-25.027344c.003907-2.042969-1.128906-3.484375-1.804687-4.160156-1.265625-1.265625-2.980469-1.992188-4.699219-1.992188-12.464844 0-25.0625-.007812-37.660156-.015625-12.589844-.007812-25.179688-.015625-37.640625-.015625-2.214844 0-3.6875 1.144532-4.367188 1.828125-.675781.675781-1.808594 2.136719-1.808594 4.324219l.035157 25.058594c13.886719 5.824218 28.628906 8.769531 43.957031 8.769531zm0 0"/><path d="m203.984375 137.636719c13.132813 0 23.816406-10.6875 23.816406-23.820313 0-13.132812-10.683593-23.8125-23.816406-23.8125s-23.816406 10.683594-23.816406 23.8125c0 13.132813 10.683593 23.820313 23.816406 23.820313zm0 0"/><path d="m295 128c-3.976562 0-7.792969-1.578125-10.605469-4.390625s-4.394531-6.628906-4.394531-10.609375v-113h-265c-8.285156 0-15 6.714844-15 15v482c0 8.285156 6.714844 15 15 15h378c8.285156 0 15-6.714844 15-15v-369.035156l-112.996094.035156s0 0-.003906 0zm-91.015625-68c29.675781 0 53.816406 24.144531 53.816406 53.816406 0 29.675782-24.144531 53.820313-53.816406 53.820313-29.675781 0-53.816406-24.144531-53.816406-53.820313 0-29.671875 24.140625-53.816406 53.816406-53.816406zm-63.394531 131.351562c6.84375-6.851562 15.933594-10.628906 25.59375-10.628906 12.464844 0 25.0625.007813 37.660156.015625 12.589844.007813 25.179688.015625 37.640625.015625 9.628906 0 19.078125 3.933594 25.925781 10.792969 6.835938 6.847656 10.59375 15.867187 10.582032 25.402344l-.050782 34.558593c-.007812 5.609376-3.144531 10.75-8.136718 13.316407-20.203126 10.390625-42.957032 15.878906-65.804688 15.878906s-45.601562-5.488281-65.800781-15.878906c-4.992188-2.566407-8.132813-7.707031-8.140625-13.316407l-.050782-34.589843c-.011718-9.640625 3.746094-18.722657 10.582032-25.566407zm98.433594 229.648438h-178.957032c-8.285156 0-15-6.714844-15-15 0-8.28125 6.714844-15 15-15h178.957032c8.285156 0 15 6.71875 15 15 0 8.285156-6.714844 15-15 15zm108.910156-75c0 8.285156-6.714844 15-15 15h-272.867188c-8.285156 0-15-6.714844-15-15 0-8.28125 6.714844-15 15-15h272.867188c8.285156 0 15 6.71875 15 15zm0 0"/></svg>