<svg height="512pt" viewBox="-17 0 512 512.00002" width="512pt" xmlns="http://www.w3.org/2000/svg" xmlns:xlink="http://www.w3.org/1999/xlink"><linearGradient id="a"><stop offset="0" stop-color="#d580ff"/><stop offset=".352" stop-color="#9999ff"/><stop offset=".709" stop-color="#9999ff"/><stop offset="1" stop-color="#6699ff"/></linearGradient><linearGradient id="b" gradientTransform="matrix(.65641 0 0 -.65641 -17.066657 510.700702)" gradientUnits="userSpaceOnUse" x1="312" x2="312" xlink:href="#a" y1="-1.3814" y2="854.0446"/><linearGradient id="c" gradientTransform="matrix(.65641 0 0 -.65641 -17.066657 510.700702)" gradientUnits="userSpaceOnUse" x1="533" x2="533" xlink:href="#a" y1="-1.3814" y2="854.0446"/><linearGradient id="d" gradientTransform="matrix(.65641 0 0 -.65641 -17.066657 510.700702)" gradientUnits="userSpaceOnUse" x1="91" x2="91" xlink:href="#a" y1="-1.3814" y2="854.0446"/><linearGradient id="e" gradientTransform="matrix(.65641 0 0 -.65641 -17.066657 510.700702)" gradientUnits="userSpaceOnUse" x1="117" x2="117" xlink:href="#a" y1="-1.3814" y2="854.0446"/><linearGradient id="f" gradientTransform="matrix(.65641 0 0 -.65641 -17.066657 510.700702)" gradientUnits="userSpaceOnUse" x1="182" x2="182" xlink:href="#a" y1="-1.3814" y2="854.0446"/><linearGradient id="g" gradientTransform="matrix(.65641 0 0 -.65641 -17.066657 510.700702)" gradientUnits="userSpaceOnUse" x1="247" x2="247" xlink:href="#a" y1="-1.3814" y2="854.0446"/><linearGradient id="h" gradientTransform="matrix(.65641 0 0 -.65641 -17.066657 510.700702)" gradientUnits="userSpaceOnUse" x1="377" x2="377" xlink:href="#a" y1="-1.3814" y2="854.0446"/><linearGradient id="i" gradientTransform="matrix(.65641 0 0 -.65641 -17.066657 510.700702)" gradientUnits="userSpaceOnUse" x1="442" x2="442" xlink:href="#a" y1="-1.3814" y2="854.0446"/><linearGradient id="j" gradientTransform="matrix(.65641 0 0 -.65641 -17.066657 510.700702)" gradientUnits="userSpaceOnUse" x1="507" x2="507" xlink:href="#a" y1="-1.3814" y2="854.0446"/><linearGradient id="k" gradientTransform="matrix(.65641 0 0 -.65641 -17.066657 510.700702)" gradientUnits="userSpaceOnUse" x1="390" x2="390" xlink:href="#a" y1="-1.3814" y2="854.0446"/><linearGradient id="l" gradientTransform="matrix(.65641 0 0 -.65641 -17.066657 510.700702)" gradientUnits="userSpaceOnUse" x1="351" x2="351" xlink:href="#a" y1="-1.9795" y2="853.4466"/><linearGradient id="m" gradientTransform="matrix(.65641 0 0 -.65641 -17.066657 510.700702)" gradientUnits="userSpaceOnUse" x1="689" x2="689" xlink:href="#a" y1="-1.3814" y2="854.0446"/><path d="m68.265625 477.867188c0 4.710937 3.820313 8.53125 8.535156 8.53125h221.867188c4.710937 0 8.53125-3.820313 8.53125-8.53125 0-4.714844-3.820313-8.535157-8.53125-8.535157h-221.867188c-4.714843 0-8.535156 3.820313-8.535156 8.535157zm0 0" fill="url(#b)"/><path d="m315.734375 477.867188c0 4.710937 3.820313 8.53125 8.53125 8.53125h17.066406c4.714844 0 8.535157-3.820313 8.535157-8.53125 0-4.714844-3.820313-8.535157-8.535157-8.535157h-17.066406c-4.710937 0-8.53125 3.820313-8.53125 8.535157zm0 0" fill="url(#c)"/><path d="m51.199219 469.332031h-17.066407c-4.710937 0-8.53125 3.820313-8.53125 8.535157 0 4.710937 3.820313 8.53125 8.53125 8.53125h17.066407c4.714843 0 8.535156-3.820313 8.535156-8.53125 0-4.714844-3.820313-8.535157-8.535156-8.535157zm0 0" fill="url(#d)"/><path d="m51.199219 460.800781h17.066406c4.714844 0 8.535156-3.820312 8.535156-8.535156 0-4.710937-3.820312-8.53125-8.535156-8.53125h-17.066406c-4.710938 0-8.53125 3.820313-8.53125 8.53125 0 4.714844 3.820312 8.535156 8.53125 8.535156zm0 0" fill="url(#e)"/><path d="m93.867188 460.800781h17.066406c4.710937 0 8.53125-3.820312 8.53125-8.535156 0-4.710937-3.820313-8.53125-8.53125-8.53125h-17.066406c-4.714844 0-8.535157 3.820313-8.535157 8.53125 0 4.714844 3.820313 8.535156 8.535157 8.535156zm0 0" fill="url(#f)"/><path d="m153.601562 460.800781c4.710938 0 8.53125-3.820312 8.53125-8.535156 0-4.710937-3.820312-8.53125-8.53125-8.53125h-17.066406c-4.714844 0-8.535156 3.820313-8.535156 8.53125 0 4.714844 3.820312 8.535156 8.535156 8.535156zm0 0" fill="url(#g)"/><path d="m179.199219 460.800781h17.066406c4.714844 0 8.535156-3.820312 8.535156-8.535156 0-4.710937-3.820312-8.53125-8.535156-8.53125h-17.066406c-4.710938 0-8.53125 3.820313-8.53125 8.53125 0 4.714844 3.820312 8.535156 8.53125 8.535156zm0 0" fill="url(#b)"/><path d="m221.867188 460.800781h17.066406c4.710937 0 8.53125-3.820312 8.53125-8.535156 0-4.710937-3.820313-8.53125-8.53125-8.53125h-17.066406c-4.714844 0-8.535157 3.820313-8.535157 8.53125 0 4.714844 3.820313 8.535156 8.535157 8.535156zm0 0" fill="url(#h)"/><path d="m264.535156 460.800781h17.066406c4.710938 0 8.53125-3.820312 8.53125-8.535156 0-4.710937-3.820312-8.53125-8.53125-8.53125h-17.066406c-4.714844 0-8.535156 3.820313-8.535156 8.53125 0 4.714844 3.820312 8.535156 8.535156 8.535156zm0 0" fill="url(#i)"/><path d="m307.199219 460.800781h17.066406c4.714844 0 8.535156-3.820312 8.535156-8.535156 0-4.710937-3.820312-8.53125-8.535156-8.53125h-17.066406c-4.710938 0-8.53125 3.820313-8.53125 8.53125 0 4.714844 3.820312 8.535156 8.53125 8.535156zm0 0" fill="url(#j)"/><path d="m51.199219 435.199219h17.066406c4.714844 0 8.535156-3.820313 8.535156-8.53125 0-4.714844-3.820312-8.535157-8.535156-8.535157h-17.066406c-4.710938 0-8.53125 3.820313-8.53125 8.535157 0 4.710937 3.820312 8.53125 8.53125 8.53125zm0 0" fill="url(#e)"/><path d="m93.867188 435.199219h17.066406c4.710937 0 8.53125-3.820313 8.53125-8.53125 0-4.714844-3.820313-8.535157-8.53125-8.535157h-17.066406c-4.714844 0-8.535157 3.820313-8.535157 8.535157 0 4.710937 3.820313 8.53125 8.535157 8.53125zm0 0" fill="url(#f)"/><path d="m136.535156 435.199219h17.066406c4.710938 0 8.53125-3.820313 8.53125-8.53125 0-4.714844-3.820312-8.535157-8.53125-8.535157h-17.066406c-4.714844 0-8.535156 3.820313-8.535156 8.535157 0 4.710937 3.820312 8.53125 8.535156 8.53125zm0 0" fill="url(#g)"/><path d="m179.199219 435.199219h17.066406c4.714844 0 8.535156-3.820313 8.535156-8.53125 0-4.714844-3.820312-8.535157-8.535156-8.535157h-17.066406c-4.710938 0-8.53125 3.820313-8.53125 8.535157 0 4.710937 3.820312 8.53125 8.53125 8.53125zm0 0" fill="url(#b)"/><path d="m221.867188 435.199219h17.066406c4.710937 0 8.53125-3.820313 8.53125-8.53125 0-4.714844-3.820313-8.535157-8.53125-8.535157h-17.066406c-4.714844 0-8.535157 3.820313-8.535157 8.535157 0 4.710937 3.820313 8.53125 8.535157 8.53125zm0 0" fill="url(#h)"/><path d="m264.535156 435.199219h17.066406c4.710938 0 8.53125-3.820313 8.53125-8.53125 0-4.714844-3.820312-8.535157-8.53125-8.535157h-17.066406c-4.714844 0-8.535156 3.820313-8.535156 8.535157 0 4.710937 3.820312 8.53125 8.535156 8.53125zm0 0" fill="url(#i)"/><path d="m307.199219 435.199219h17.066406c4.714844 0 8.535156-3.820313 8.535156-8.53125 0-4.714844-3.820312-8.535157-8.535156-8.535157h-17.066406c-4.710938 0-8.53125 3.820313-8.53125 8.535157 0 4.710937 3.820312 8.53125 8.53125 8.53125zm0 0" fill="url(#j)"/><path d="m230.398438 213.332031h17.066406c4.714844 0 8.535156-3.820312 8.535156-8.53125 0-4.714843-3.820312-8.535156-8.535156-8.535156h-17.066406c-4.710938 0-8.53125 3.820313-8.53125 8.535156 0 4.710938 3.820312 8.53125 8.53125 8.53125zm0 0" fill="url(#k)"/><path d="m332.800781 256h-39.398437l-2.132813-17.066406h109.796875c14.140625 0 25.601563-11.460938 25.601563-25.601563v-187.730469c0-14.140624-11.460938-25.601562-25.601563-25.601562h-324.265625c-14.140625 0-25.601562 11.460938-25.601562 25.601562v187.730469c0 14.140625 11.460937 25.601563 25.601562 25.601563h109.796875l-6.398437 51.199218h-18.066407c-4.710937 0-8.53125 3.820313-8.53125 8.535157 0 4.710937 3.820313 8.53125 8.53125 8.53125h153.601563c4.710937 0 8.53125-3.820313 8.53125-8.53125 0-4.714844-3.820313-8.535157-8.53125-8.535157h-18.066406l-2.132813-17.066406h37.265625c14.136719 0 25.597657 11.460938 25.597657 25.601563v17.066406c0 14.136719-11.460938 25.597656-25.597657 25.597656h-170.667969c-23.550781.03125-42.636718 19.117188-42.667968 42.667969v8.535156h-93.863282c-14.140624 0-25.601562 11.460938-25.601562 25.597656v68.265626c0 14.140624 11.460938 25.601562 25.601562 25.601562h324.265626c14.136718 0 25.597656-11.460938 25.597656-25.601562v-68.265626c0-14.136718-11.460938-25.597656-25.597656-25.597656h-213.332032v-8.535156c0-14.136719 11.460938-25.601562 25.597656-25.601562h170.667969c23.550781-.027344 42.636719-19.113282 42.664063-42.664063v-17.066406c-.027344-23.554688-19.113282-42.640625-42.664063-42.667969zm-256-238.933594h324.265625c4.714844 0 8.535156 3.820313 8.535156 8.535156v145.066407h-341.335937v-145.066407c0-4.714843 3.820313-8.535156 8.535156-8.535156zm-8.535156 196.265625v-25.597656h341.335937v25.597656c0 4.714844-3.820312 8.535157-8.535156 8.535157h-324.265625c-4.714843 0-8.535156-3.820313-8.535156-8.535157zm129.136719 76.800781 6.398437-51.199218h70.265625l6.398438 51.199218zm160.996094 128v68.265626c0 4.714843-3.820313 8.535156-8.53125 8.535156h-324.265626c-4.714843 0-8.535156-3.820313-8.535156-8.535156v-68.265626c0-4.710937 3.820313-8.53125 8.535156-8.53125h324.265626c4.710937 0 8.53125 3.820313 8.53125 8.53125zm0 0" fill="url(#l)"/><g fill="url(#m)"><path d="m435.199219 392.535156c-23.550781.027344-42.636719 19.113282-42.664063 42.664063v34.132812c0 23.566407 19.101563 42.667969 42.664063 42.667969 23.566406 0 42.667969-19.101562 42.667969-42.667969v-34.132812c-.027344-23.550781-19.113282-42.636719-42.667969-42.664063zm25.601562 76.796875c0 14.140625-11.460937 25.601563-25.601562 25.601563-14.136719 0-25.597657-11.460938-25.597657-25.601563v-34.132812c0-14.136719 11.460938-25.597657 25.597657-25.597657 14.140625 0 25.601562 11.460938 25.601562 25.597657zm0 0"/><path d="m435.199219 418.132812c-4.710938 0-8.53125 3.820313-8.53125 8.535157v8.53125c0 4.714843 3.820312 8.535156 8.53125 8.535156 4.714843 0 8.535156-3.820313 8.535156-8.535156v-8.53125c0-4.714844-3.820313-8.535157-8.535156-8.535157zm0 0"/></g></svg>